<svg xmlns="http://www.w3.org/2000/svg" width="40.074" height="38.005" viewBox="0 0 40.074 38.005">
  <g id="Group_1157" data-name="Group 1157" transform="translate(-122.015 -483.985)">
    <path id="Path_32" data-name="Path 32" d="M152,492a.742.742,0,0,0,1.05,0l.859-.859a17.444,17.444,0,0,1,4.624,11.845c0,.372-.012.745-.036,1.117l-.733-.839a.742.742,0,0,0-1.117.978l1.783,2.039a.755.755,0,0,0,1.064.194l2.285-1.647a.744.744,0,0,0,.168-1.037h0a.742.742,0,0,0-1.036-.167l-.94.677q.045-.657.046-1.315a18.982,18.982,0,1,0-15.063,18.593.742.742,0,1,0-.307-1.452,17.664,17.664,0,0,1-2.89.36v-1.224a.742.742,0,1,0-1.484,0v1.224a17.45,17.45,0,0,1-11.1-4.607l.859-.86a.742.742,0,0,0-1.049-1.049l-.86.859a17.453,17.453,0,0,1-4.607-11.1h1.224a.742.742,0,0,0,0-1.484h-1.223a17.451,17.451,0,0,1,4.606-11.1l.86.86a.742.742,0,1,0,1.049-1.05l-.859-.859a17.45,17.45,0,0,1,11.1-4.607v1.223a.742.742,0,0,0,1.484,0v-1.223a17.45,17.45,0,0,1,11.1,4.607l-.86.86A.743.743,0,0,0,152,492Z" fill="#fff"/>
  </g>
</svg>
